<svg version="1.2" xmlns="http://www.w3.org/2000/svg" viewBox="0 0 1080 1080" width="1080" height="1080">
	<title>New Project</title>
	<style>
		.s0 { fill: none;stroke: #68acb4;stroke-linecap: round;stroke-linejoin: round;stroke-width: 14 } 
		.s1 { fill: #68acb4;stroke: #68acb4;stroke-miterlimit:10 } 
		.s2 { fill: #68acb4;stroke: #68acb4;stroke-linejoin: bevel;stroke-width: 10 } 
	</style>
	<path id="&lt;Path&gt;" class="s0" d="m1064.8 290q-150.6-136.1-301.1-272.2-152.6 133-305.3 266"/>
	<path id="&lt;Path&gt;" class="s0" d="m1040 267.3q-4.1 172.2-8.2 344.4c-2.4 46.2-15.4 177.9-116 291.5-137.1 154.9-330.7 155.8-381.1 156.1-46.7 0.2-254.5 1.2-395.2-164.3-93.2-109.7-107.2-233.6-110-281.2"/>
	<path id="&lt;Path&gt;" class="s0" d="m29.5 613.8q501.1-1 1002.3-2.1"/>
	<path id="&lt;Path&gt;" class="s0" d="m703.2 612.4q0-94.7 0-189.5 61.8 0.5 123.7 0.9 1.4 94.2 2.8 188.4"/>
	<path id="&lt;Path&gt;" class="s0" d="m486 259.8q2.4 399.2 4.9 798.5"/>
	<path id="&lt;Path&gt;" class="s0" d="m387 613.1q0.6-127.9 1.3-255.7-37.1 0-74.2 0-0.7 127.9-1.4 255.8"/>
	<path id="&lt;Path&gt;" class="s0" d="m242.6 613.4q-0.7-82.7-1.4-165.3-37.3-0.6-74.6-1.3-0.5 83.4-1 166.7"/>
	<path id="&lt;Path&gt;" class="s0" d="m101 613.7q0-45 0-89.9-35 0-69.9 0.1-0.7 46.5-1.4 93.1"/>
	<path id="&lt;Path&gt;" class="s1" d="m488.2 612.9q-229.4 0.4-458.7 0.9c2.2 45.5 14.3 161.3 99.5 268.4 132 165.8 331.3 175.1 361.9 176.1q-1.4-222.7-2.7-445.4z"/>
	<path id="&lt;Path&gt;" class="s0" d="m762.3 612.3q-0.1 201.2-0.1 402.4"/>
	<path id="&lt;Path&gt;" class="s0" d="m762.2 800.1q-48.1-37.8-96.2-75.6"/>
	<path id="&lt;Path&gt;" class="s0" d="m762.2 987.1q-71.5-66.7-142.9-133.4"/>
	<path id="&lt;Path&gt;" class="s0" d="m762.2 800.1q60.5-55.7 121.1-111.4 15.4 16.4 30.9 32.7"/>
	<path id="&lt;Path&gt;" class="s2" d="m380 258.8h-59c-10.6 0-19.2-8.6-19.2-19.2v-59c0-10.6 8.6-19.2 19.2-19.2h59c10.6 0 19.2 8.6 19.2 19.2v59c0 10.6-8.6 19.2-19.2 19.2z"/>
	<path id="&lt;Path&gt;" class="s2" d="m380 115.2h-59c-10.6 0-19.2-8.6-19.2-19.2v-59c0-10.6 8.6-19.2 19.2-19.2h59c10.6 0 19.2 8.6 19.2 19.2v59c0 10.6-8.6 19.2-19.2 19.2z"/>
	<path id="&lt;Path&gt;" class="s2" d="m233.6 115.2h-59c-10.6 0-19.2-8.6-19.2-19.2v-59c0-10.6 8.6-19.2 19.2-19.2h59c10.6 0 19.2 8.6 19.2 19.2v59c0 10.6-8.6 19.2-19.2 19.2z"/>
	<path id="&lt;Path&gt;" class="s2" d="m233.6 258.8h-59c-10.6 0-19.2-8.6-19.2-19.2v-59c0-10.6 8.6-19.2 19.2-19.2h59c10.6 0 19.2 8.6 19.2 19.2v59c0 10.6-8.6 19.2-19.2 19.2z"/>
	<g id="Layer 1">
	</g>
</svg>